<svg width="24" height="21" viewBox="0 0 24 21" fill="none" xmlns="http://www.w3.org/2000/svg">
<path d="M10.125 3.33692H22.3125M10.125 3.33692C10.125 3.8234 9.92746 4.28994 9.57583 4.63393C9.22419 4.97791 8.74728 5.17116 8.25 5.17116C7.75272 5.17116 7.27581 4.97791 6.92417 4.63393C6.57254 4.28994 6.375 3.8234 6.375 3.33692M10.125 3.33692C10.125 2.85045 9.92746 2.38391 9.57583 2.03992C9.22419 1.69593 8.74728 1.50269 8.25 1.50269C7.75272 1.50269 7.27581 1.69593 6.92417 2.03992C6.57254 2.38391 6.375 2.85045 6.375 3.33692M6.375 3.33692H1.6875M10.125 18.0108H22.3125M10.125 18.0108C10.125 18.4973 9.92746 18.9639 9.57583 19.3078C9.22419 19.6518 8.74728 19.8451 8.25 19.8451C7.75272 19.8451 7.27581 19.6518 6.92417 19.3078C6.57254 18.9639 6.375 18.4973 6.375 18.0108M10.125 18.0108C10.125 17.5244 9.92746 17.0578 9.57583 16.7138C9.22419 16.3698 8.74728 16.1766 8.25 16.1766C7.75272 16.1766 7.27581 16.3698 6.92417 16.7138C6.57254 17.0578 6.375 17.5244 6.375 18.0108M6.375 18.0108H1.6875M17.625 10.6739H22.3125M17.625 10.6739C17.625 11.1604 17.4275 11.6269 17.0758 11.9709C16.7242 12.3149 16.2473 12.5081 15.75 12.5081C15.2527 12.5081 14.7758 12.3149 14.4242 11.9709C14.0725 11.6269 13.875 11.1604 13.875 10.6739M17.625 10.6739C17.625 10.1874 17.4275 9.72086 17.0758 9.37688C16.7242 9.03289 16.2473 8.83964 15.75 8.83964C15.2527 8.83964 14.7758 9.03289 14.4242 9.37688C14.0725 9.72086 13.875 10.1874 13.875 10.6739M13.875 10.6739H1.6875" stroke="black" stroke-width="1.5" stroke-linecap="round" stroke-linejoin="round"/>
</svg>
