<svg width="165" height="270" viewBox="0 0 165 270" fill="none" xmlns="http://www.w3.org/2000/svg">
<path d="M110 253H93V132L110 142L165 175V193L110 161V253Z" fill="white"/>
<path d="M151 163L134 153V65L74 30V93L57 103V0L151 55V163Z" fill="white"/>
<path d="M165 253V270H93V253H165Z" fill="white"/>
<path d="M110 138.5L93 128.5V103L17 148V175.5L0 185.5V140.5L110 75V138.5Z" fill="white"/>
<path d="M0 212V190.999L52 160V181L0 212Z" fill="white"/>
<path d="M0 241V219.999L52 189V210L0 241Z" fill="white"/>
<path d="M0 270V248.999L52 218V239L0 270Z" fill="white"/>
</svg>
